<?xml version="1.0" standalone="no"?>
<!DOCTYPE svg PUBLIC "-//W3C//DTD SVG 20010904//EN"
 "http://www.w3.org/TR/2001/REC-SVG-20010904/DTD/svg10.dtd">
<svg version="1.0" xmlns="http://www.w3.org/2000/svg"
 width="512.000000pt" height="512.000000pt" viewBox="0 0 512.000000 512.000000"
 preserveAspectRatio="xMidYMid meet">
<metadata>
Created by potrace 1.11, written by Peter Selinger 2001-2013
</metadata>
<g transform="translate(0.000000,512.000000) scale(0.100000,-0.100000)"
fill="#000000" stroke="none">
<path d="M293 5086 c-138 -44 -245 -165 -273 -311 -8 -44 -10 -515 -8 -1755
l3 -1695 21 -52 c45 -110 134 -197 244 -240 42 -17 109 -18 911 -21 l866 -3 8
-81 c36 -415 313 -761 715 -894 l85 -29 363 -3 362 -3 0 505 0 506 585 0 c394
0 601 4 637 11 120 26 226 110 279 222 l29 63 -2 1760 -3 1759 -27 56 c-38 76
-109 146 -188 183 l-65 31 -2250 2 c-1840 1 -2258 -1 -2292 -11z m4172 -509
c55 -25 103 -73 131 -132 l24 -50 0 -1437 0 -1438 -664 0 c-739 0 -717 2 -790
-68 -21 -20 -48 -57 -60 -82 -20 -43 -21 -61 -24 -457 l-3 -413 -37 0 c-137 1
-295 93 -381 220 -77 116 -84 147 -90 400 -6 223 -6 225 -34 272 -31 53 -79
94 -134 114 -31 10 -199 13 -854 14 -885 0 -859 -1 -933 55 -18 14 -46 49 -62
77 l-29 53 -3 1333 c-1 877 1 1347 8 1371 22 81 96 155 177 177 39 10 408 12
1883 11 1744 -2 1837 -3 1875 -20z"/>
<path d="M1432 3794 c-87 -43 -136 -124 -136 -224 0 -106 58 -193 157 -235 32
-13 169 -15 1119 -15 l1083 0 51 24 c59 27 107 82 129 145 41 120 -16 254
-129 307 l-51 24 -1086 0 -1085 0 -52 -26z"/>
<path d="M1480 2791 c-85 -26 -151 -93 -176 -177 -40 -138 48 -284 189 -314
37 -8 358 -10 1112 -8 1011 3 1062 4 1095 22 96 51 144 128 144 231 1 106 -47
185 -140 231 -38 18 -73 19 -1119 21 -594 1 -1091 -2 -1105 -6z"/>
</g>
</svg>
