<svg width="1793" height="361" viewBox="0 0 1793 361" xmlns="http://www.w3.org/2000/svg">
<path fill-rule="evenodd" clip-rule="evenodd" d="M40.0373 275.481C17.9459 275.481 0.037262 257.573 0.037262 235.481V74.1481C0.037262 52.0567 17.9459 34.1481 40.0373 34.1481H386.704C408.795 34.1481 426.704 52.0567 426.704 74.1481V235.482C426.704 257.573 408.795 275.481 386.704 275.481H298.704V360.815H256.037C208.91 360.815 170.704 322.609 170.704 275.481H40.0373ZM188.371 232.815C202.178 232.815 213.371 244.008 213.371 257.815V275.481C213.371 299.046 232.472 318.148 256.037 318.148V257.815C256.037 244.008 267.23 232.815 281.037 232.815H384.037V101.815C384.037 88.0077 372.844 76.8148 359.037 76.8148H67.7039C53.8968 76.8148 42.7039 88.0077 42.7039 101.815V207.815C42.7039 221.622 53.8968 232.815 67.7039 232.815H188.371Z"/>
<path d="M65.3092 129.679V143.455C67.8512 143.291 72.4432 143.127 76.1332 143.127H111.639V174.287H75.1492C71.2952 174.287 67.5232 174.041 64.3252 173.795V187.981C67.2772 187.653 72.4432 187.407 75.5592 187.407H111.557C111.557 188.719 111.475 190.113 111.475 191.507H125.907C125.661 188.309 125.497 183.635 125.497 180.847V138.289C125.497 135.583 125.661 131.975 125.743 130.007C124.513 130.089 120.577 130.253 117.953 130.253H76.1332C73.1812 130.253 68.5892 130.007 65.3092 129.679ZM205.857 128.449L191.015 123.283C190.605 125.579 189.703 129.269 188.883 131.647C186.833 137.715 184.455 143.537 180.847 149.523C174.123 144.685 166.087 139.273 159.773 135.419L151.245 145.587C159.855 150.835 167.153 156.247 172.811 160.675C164.775 170.269 155.427 177.731 142.471 183.963L153.623 194.049C167.235 186.423 176.255 177.731 183.225 169.367C189.539 174.943 195.197 180.519 200.773 187.079L211.023 175.599C205.611 169.941 198.887 163.627 191.671 157.805C196.181 150.507 199.625 142.799 202.003 136.649C202.823 134.599 204.627 130.499 205.857 128.449ZM237.591 125.415L228.161 135.501C234.065 139.683 244.397 148.703 248.743 153.459L258.911 143.045C253.991 137.797 243.249 129.269 237.591 125.415ZM225.455 179.863L233.901 192.983C244.233 191.343 254.893 187.079 263.257 182.159C276.951 174.123 288.595 162.725 295.155 151.081L287.447 137.059C281.953 148.621 270.883 161.331 256.123 169.859C248.087 174.533 237.509 178.223 225.455 179.863ZM323.855 180.847C323.855 184.209 323.445 189.703 322.871 193.229H338.451C338.041 189.539 337.549 183.061 337.549 180.847V159.773C346.241 162.889 357.475 167.235 365.757 171.499L371.415 157.641C364.527 154.279 348.619 148.457 337.549 145.259V134.025C337.549 130.089 338.041 126.481 338.369 123.365H322.871C323.527 126.481 323.855 130.745 323.855 134.025V180.847Z"/>
<path d="M535.089 214.717L513.864 235.659V274.43H469.716V64.4444H513.864V183.304L578.388 122.176H631.026L567.634 186.7L636.686 274.43H583.199L535.089 214.717ZM722.355 276.694C706.318 276.694 691.885 273.393 679.056 266.789C666.415 259.997 656.51 250.658 649.341 238.772C642.172 226.886 638.587 213.397 638.587 198.303C638.587 183.21 642.172 169.72 649.341 157.834C656.51 145.948 666.415 136.704 679.056 130.1C691.885 123.308 706.318 119.912 722.355 119.912C738.392 119.912 752.73 123.308 765.371 130.1C778.012 136.704 787.917 145.948 795.086 157.834C802.256 169.72 805.84 183.21 805.84 198.303C805.84 213.397 802.256 226.886 795.086 238.772C787.917 250.658 778.012 259.997 765.371 266.789C752.73 273.393 738.392 276.694 722.355 276.694ZM722.355 240.47C733.675 240.47 742.92 236.697 750.089 229.15C757.447 221.415 761.126 211.133 761.126 198.303C761.126 185.474 757.447 175.286 750.089 167.739C742.92 160.004 733.675 156.136 722.355 156.136C711.035 156.136 701.696 160.004 694.338 167.739C686.98 175.286 683.301 185.474 683.301 198.303C683.301 211.133 686.98 221.415 694.338 229.15C701.696 236.697 711.035 240.47 722.355 240.47ZM1030.34 119.912C1049.39 119.912 1064.49 125.572 1075.62 136.892C1086.94 148.024 1092.6 164.815 1092.6 187.266V274.43H1048.45V194.058C1048.45 181.984 1045.9 173.022 1040.81 167.173C1035.9 161.136 1028.83 158.117 1019.58 158.117C1009.21 158.117 1001 161.513 994.962 168.305C988.924 174.909 985.906 184.814 985.906 198.02V274.43H941.758V194.058C941.758 170.098 932.136 158.117 912.892 158.117C902.704 158.117 894.591 161.513 888.554 168.305C882.516 174.909 879.498 184.814 879.498 198.02V274.43H835.35V122.176H877.517V139.722C883.177 133.308 890.063 128.402 898.176 125.006C906.477 121.61 915.533 119.912 925.344 119.912C936.098 119.912 945.814 122.082 954.493 126.421C963.171 130.572 970.152 136.704 975.435 144.816C981.661 136.892 989.49 130.761 998.924 126.421C1008.55 122.082 1019.02 119.912 1030.34 119.912ZM1282.97 198.869C1282.97 199.435 1282.68 203.397 1282.12 210.755H1166.94C1169.01 220.189 1173.92 227.641 1181.65 233.112C1189.39 238.584 1199.01 241.319 1210.52 241.319C1218.44 241.319 1225.42 240.187 1231.46 237.923C1237.69 235.471 1243.44 231.697 1248.72 226.603L1272.21 252.073C1257.87 268.487 1236.93 276.694 1209.39 276.694C1192.22 276.694 1177.03 273.393 1163.82 266.789C1150.62 259.997 1140.43 250.658 1133.26 238.772C1126.09 226.886 1122.51 213.397 1122.51 198.303C1122.51 183.399 1126 170.003 1132.98 158.117C1140.15 146.043 1149.86 136.704 1162.13 130.1C1174.58 123.308 1188.45 119.912 1203.73 119.912C1218.63 119.912 1232.12 123.12 1244.2 129.534C1256.27 135.949 1265.7 145.194 1272.5 157.268C1279.48 169.154 1282.97 183.021 1282.97 198.869ZM1204.01 153.306C1194.01 153.306 1185.62 156.136 1178.82 161.796C1172.03 167.456 1167.88 175.192 1166.37 185.002H1241.37C1239.86 175.38 1235.71 167.739 1228.91 162.079C1222.12 156.231 1213.82 153.306 1204.01 153.306ZM1404.9 119.912C1423.77 119.912 1438.95 125.572 1450.46 136.892C1462.16 148.212 1468.01 165.004 1468.01 187.266V274.43H1423.86V194.058C1423.86 181.984 1421.22 173.022 1415.94 167.173C1410.65 161.136 1403.01 158.117 1393.01 158.117C1381.88 158.117 1373.02 161.608 1366.41 168.588C1359.81 175.38 1356.51 185.568 1356.51 199.152V274.43H1312.36V122.176H1354.53V140.005C1360.37 133.591 1367.64 128.685 1376.32 125.289C1385 121.705 1394.52 119.912 1404.9 119.912ZM1606.23 267.072C1601.89 270.28 1596.51 272.732 1590.1 274.43C1583.87 275.94 1577.27 276.694 1570.29 276.694C1552.18 276.694 1538.12 272.072 1528.12 262.827C1518.31 253.583 1513.4 239.999 1513.4 222.075V159.532H1489.92V125.572H1513.4V88.4994H1557.55V125.572H1595.47V159.532H1557.55V221.509C1557.55 227.924 1559.16 232.924 1562.36 236.508C1565.76 239.904 1570.48 241.602 1576.51 241.602C1583.49 241.602 1589.44 239.716 1594.34 235.942L1606.23 267.072ZM1698.76 276.694C1682.72 276.694 1668.29 273.393 1655.46 266.789C1642.82 259.997 1632.92 250.658 1625.75 238.772C1618.58 226.886 1614.99 213.397 1614.99 198.303C1614.99 183.21 1618.58 169.72 1625.75 157.834C1632.92 145.948 1642.82 136.704 1655.46 130.1C1668.29 123.308 1682.72 119.912 1698.76 119.912C1714.8 119.912 1729.14 123.308 1741.78 130.1C1754.42 136.704 1764.32 145.948 1771.49 157.834C1778.66 169.72 1782.25 183.21 1782.25 198.303C1782.25 213.397 1778.66 226.886 1771.49 238.772C1764.32 250.658 1754.42 259.997 1741.78 266.789C1729.14 273.393 1714.8 276.694 1698.76 276.694ZM1698.76 240.47C1710.08 240.47 1719.33 236.697 1726.49 229.15C1733.85 221.415 1737.53 211.133 1737.53 198.303C1737.53 185.474 1733.85 175.286 1726.49 167.739C1719.33 160.004 1710.08 156.136 1698.76 156.136C1687.44 156.136 1678.1 160.004 1670.74 167.739C1663.39 175.286 1659.71 185.474 1659.71 198.303C1659.71 211.133 1663.39 221.415 1670.74 229.15C1678.1 236.697 1687.44 240.47 1698.76 240.47Z"/>
</svg>
